<?xml version="1.0" encoding="UTF-8"?>
<svg id="Layer_1" xmlns="http://www.w3.org/2000/svg" version="1.1" viewBox="0 0 200 101.9">
  <!-- Generator: Adobe Illustrator 29.3.1, SVG Export Plug-In . SVG Version: 2.1.0 Build 151)  -->
  <defs>
    <style>
      .st0 {
        fill: #010101;
      }
    </style>
  </defs>
  <path class="st0" d="M170.1,48.7c-.8,0-1.4,0-2.2.2-7.4-22.6-27.1-40.5-51.5-42.7s-13.3-1.1-18.1-1.1-15.3.8-18.2,1.1c-13.8,1.9-26,8.3-35.4,17.6-6.8,6.8-12.1,15.3-15.1,24.7h-1.9c-11.4,0-20.7,9.3-20.7,20.7s9.3,20.7,20.7,20.7,1.9,0,2.9-.2c1.5,4.3,3.7,8.3,6.2,12.1h22.3c-7.7-4.3-13-12.2-13.8-21.5v-2.2c0-4.5,1.1-8.7,3.1-12.4,4.5-8.7,13.6-14.7,24.1-14.7s18.1,4.9,22.9,12.5c2,3.1,6.5,3.1,8.5,0,4.8-7.6,13.3-12.5,22.9-12.5s19.6,6,24.1,14.8c1.9,3.7,2.9,7.9,2.9,12.4s0,1.4,0,2c-.8,9.3-6,17.3-13.8,21.5h21c2.5-3.9,4.6-7.9,6.2-12.2,1.2.3,2.6.3,3.9.3,12.5,0,22.4-11,20.6-23.8-1.5-10.4-11-18.1-21.3-17.5h-.3ZM17.7,69.4c0-5.4,4.3-9.9,9.7-10.2-.5,2.8-.6,5.7-.6,8.7s.3,7.9,1.1,11.6c-5.6,0-10-4.6-10-10.2l-.2.2ZM171,79.6h-1.1c.8-3.7,1.1-7.6,1.1-11.6s-.2-5.9-.6-8.7h.6c5.7,0,10.2,4.6,10.2,10.2s-4.5,10.2-10.2,10.2v-.2Z"/>
  <path class="st0" d="M70.4,74.8c-4.6,0-8.3,3.7-8.3,8.3s3.7,8.3,8.3,8.3,8.3-3.7,8.3-8.3-3.7-8.3-8.3-8.3Z"/>
  <path class="st0" d="M128.5,74.8c-4.6,0-8.3,3.7-8.3,8.3s3.7,8.3,8.3,8.3,8.3-3.7,8.3-8.3-3.7-8.3-8.3-8.3Z"/>
</svg>