<?xml version="1.0" encoding="UTF-8"?>
<svg id="Layer_2" data-name="Layer 2" xmlns="http://www.w3.org/2000/svg" viewBox="0 0 280.1 63.02">
  <g id="Layer_1-2" data-name="Layer 1">
    <g>
      <path d="M105.5,28.62c-.5,0-.9,0-1.4.1-4.8-14.6-17.6-25.6-33.3-27.6s-8.6-.7-11.7-.7-9.9.5-11.8.7c-8.9,1.2-16.8,5.4-22.9,11.4-4.4,4.4-7.8,9.9-9.8,16h-1.2c-7.4,0-13.4,6-13.4,13.4s6,13.4,13.4,13.4,1.2,0,1.9-.1c1,2.8,2.4,5.4,4,7.8h14.4c-5-2.8-8.4-7.9-8.9-13.9v-1.4c0-2.9.7-5.6,2-8,2.9-5.6,8.8-9.5,15.6-9.5s11.7,3.2,14.8,8.1c1.3,2,4.2,2,5.5,0,3.1-4.9,8.6-8.1,14.8-8.1s12.7,3.9,15.6,9.6c1.2,2.4,1.9,5.1,1.9,8s0,.9,0,1.3c-.5,6-3.9,11.2-8.9,13.9h13.6c1.6-2.5,3-5.1,4-7.9.8.2,1.7.2,2.5.2,8.1,0,14.5-7.1,13.3-15.4-1-6.7-7.1-11.7-13.8-11.3h-.2ZM6.9,42.02c0-3.5,2.8-6.4,6.3-6.6-.3,1.8-.4,3.7-.4,5.6s.2,5.1.7,7.5c-3.6,0-6.5-3-6.5-6.6l-.1.1ZM106.1,48.62h-.7c.5-2.4.7-4.9.7-7.5s-.1-3.8-.4-5.6h.4c3.7,0,6.6,3,6.6,6.6s-2.9,6.6-6.6,6.6v-.1Z"/>
      <path d="M41,45.52c-3,0-5.4,2.4-5.4,5.4s2.4,5.4,5.4,5.4,5.4-2.4,5.4-5.4-2.4-5.4-5.4-5.4Z"/>
      <path d="M78.6,45.52c-3,0-5.4,2.4-5.4,5.4s2.4,5.4,5.4,5.4,5.4-2.4,5.4-5.4-2.4-5.4-5.4-5.4Z"/>
    </g>
    <g>
      <path d="M139.4,6.12h8.7l7.1,8.9h.4l7.1-8.9h8.7v28.1h-8.8v-16.2h-.4l-6.5,8.5h-.4l-6.5-8.5h-.4v16.2h-8.8V6.12h-.2Z"/>
      <path d="M174.3,20.12c0-8.9,6.6-14.6,15.1-14.6s15.1,5.7,15.1,14.6-6.6,14.7-15.1,14.7-15.1-5.4-15.1-14.7ZM195,20.12c0-3.5-2.2-5.9-5.7-5.9s-5.7,2.5-5.7,5.9,2.2,6,5.7,6,5.7-2.5,5.7-6Z"/>
      <path d="M207.5,6.12h9.6l10.4,15.2h.3V6.12h8.6v28.1h-9.6l-10.3-15.2h-.3v15.2h-8.6V6.12h-.1Z"/>
      <path d="M253.7,24.62h-.7l-3.3,3.8v5.9h-9.2V6.12h9.2v10h.6l8.3-10h10.8l-9.7,11,9.1,17.1h-10l-5-9.6h-.1Z"/>
      <path d="M270.9,6.12h9.2v28.1h-9.2V6.12Z"/>
    </g>
    <g>
      <path d="M140.3,59.72c-.3,0-.5,0-.6-.1-.1,0-.2-.2-.3-.3s0-.3,0-.5v-12.8c0-.4,0-.6.2-.7s.4-.2.8-.2h9c.1,0,.2.1.3.3,0,.1.1.4.1.6s0,.5-.1.6c0,.1-.2.2-.3.3h-8.1v4.4h5.8c.1,0,.2.1.3.3,0,.1.1.3.1.6s0,.4-.1.6c0,.1-.2.2-.3.2h-5.7v4.8h8.1c.1,0,.2.1.3.3,0,.1.1.3.1.6s0,.5-.1.6c0,.1-.2.2-.3.3h-9l-.2.1Z"/>
      <path d="M165.6,59.92c-.5,0-1,0-1.5-.2-.5-.1-.9-.3-1.3-.5-.4-.2-.7-.5-1-.7s-.5-.5-.7-.8c-.1-.2-.2-.4-.3-.6v-.4c0-.1.2-.3.4-.5s.4-.2.6-.2.3,0,.5.2.3.3.5.5c.4.5.8.8,1.3,1s1,.3,1.5.3,1.2,0,1.7-.3c.5-.2.9-.4,1.2-.8.3-.3.4-.8.4-1.3s-.1-.8-.3-1.1-.5-.6-.9-.8-.8-.4-1.3-.6c-.5-.2-.9-.3-1.4-.5-.4-.1-.7-.3-1.1-.4-.4-.2-.7-.3-1-.5s-.6-.5-.8-.7c-.2-.3-.4-.6-.6-1s-.2-.8-.2-1.3c0-.8.2-1.5.6-2s.9-1,1.6-1.4c.7-.3,1.4-.5,2.3-.5s1,0,1.5.1c.4,0,.8.2,1.2.4.3.2.6.3.9.5.2.2.4.3.5.5.3.3.4.5.4.7s0,.4-.3.7c-.2.3-.5.4-.7.4s-.4,0-.7-.3-.5-.5-.8-.7-.6-.3-.9-.3h-1.1c-.4,0-.7,0-1,.1-.3,0-.6.2-.8.4s-.4.4-.5.7-.2.6-.2.9.1.7.3,1,.5.5.8.7.7.3,1.1.5c.4.1.9.3,1.3.4.5.2,1,.3,1.5.6.5.2.9.5,1.3.8.4.3.7.7.9,1.2s.4,1.1.4,1.8-.1,1.3-.4,1.9c-.3.5-.7,1-1.1,1.3-.5.4-1,.6-1.6.8-.6.2-1.3.3-1.9.3l-.3-.3Z"/>
      <path d="M193.1,45.02h.5c.1,0,.2.1.3.3v.6c0,.3,0,.4-.1.6,0,.1-.2.2-.3.2h-4.9v12.5c0,.1-.1.2-.3.3-.1,0-.3.1-.6.1s-.5,0-.6-.1c-.1,0-.2-.2-.3-.3s0-.3,0-.5v-12h-4.9c-.2,0-.2-.1-.3-.2,0-.1-.1-.3-.1-.6s0-.4.1-.6.2-.2.3-.3h11.2Z"/>
      <path d="M211.3,59.82c-.9,0-1.8-.2-2.5-.5s-1.4-.8-1.9-1.4-.9-1.3-1.2-2.1-.4-1.7-.4-2.7v-7.6c0-.1.1-.2.3-.3.1,0,.3-.1.6-.1s.5,0,.6.1c.1,0,.2.2.3.3v7.6c0,.9.2,1.8.5,2.5s.8,1.3,1.4,1.7c.6.4,1.4.6,2.3.6s1.6-.2,2.2-.6c.6-.4,1.1-.9,1.4-1.7.3-.7.5-1.6.5-2.6v-7.7c0-.1.1-.2.3-.3s.3-.1.6-.1.5,0,.6.1c.1,0,.2.2.3.3v7.7c0,1-.1,1.9-.4,2.7-.3.8-.7,1.5-1.2,2.1s-1.2,1.1-1.9,1.4-1.6.5-2.6.5l.2.1Z"/>
      <path d="M230.2,59.72c-.2,0-.4,0-.6-.1-.1,0-.2-.2-.3-.3v-13.8c0-.1.1-.3.3-.3.1,0,.3-.1.6-.1h4.2c1,0,2,.2,2.8.5.9.3,1.6.8,2.2,1.5.6.6,1.1,1.4,1.4,2.3.3.9.5,1.9.5,3s-.2,2.2-.5,3.1c-.3.9-.8,1.7-1.4,2.3-.6.6-1.3,1.1-2.2,1.5s-1.8.5-2.9.5h-4.1v-.1ZM231.2,57.82h3.2c1,0,1.9-.2,2.7-.7.7-.4,1.3-1.1,1.7-1.9.4-.8.6-1.8.6-2.9s-.2-2.1-.6-2.9-1-1.4-1.7-1.9c-.8-.4-1.6-.7-2.7-.7h-3.2v11Z"/>
      <path d="M253.9,59.72c-.3,0-.5,0-.6-.1-.1,0-.2-.2-.3-.3s0-.3,0-.5v-13.3c0-.1.1-.3.3-.3.1,0,.3-.1.6-.1s.5,0,.6.1c.1,0,.2.2.3.3v13.8c0,.1-.1.2-.3.3-.1,0-.3.1-.6.1Z"/>
      <path d="M273.1,59.82c-1,0-1.9-.2-2.8-.6s-1.7-.9-2.3-1.6c-.7-.7-1.2-1.5-1.6-2.4s-.6-1.8-.6-2.9.2-2,.5-2.9c.4-.9.9-1.7,1.5-2.4.7-.7,1.4-1.2,2.3-1.6.9-.4,1.8-.6,2.7-.6s2,.2,2.8.6c.9.4,1.6.9,2.3,1.6.7.7,1.2,1.5,1.6,2.4s.6,1.9.6,2.9-.2,2-.6,2.9-.9,1.7-1.5,2.4c-.6.7-1.4,1.2-2.2,1.6-.9.4-1.8.6-2.7.6h0ZM272.9,57.92c.7,0,1.4-.1,2.1-.4.6-.3,1.2-.7,1.7-1.2s.9-1.1,1.1-1.8.4-1.4.4-2.2-.1-1.5-.4-2.1-.7-1.3-1.1-1.8c-.5-.5-1-.9-1.7-1.2-.6-.3-1.3-.4-2-.4s-1.4.1-2,.4c-.6.3-1.2.7-1.7,1.2s-.9,1.1-1.1,1.8-.4,1.4-.4,2.2.1,1.5.4,2.2.7,1.3,1.1,1.8c.5.5,1,.9,1.7,1.2.6.3,1.3.4,2,.4l-.1-.1Z"/>
    </g>
  </g>
</svg>